<svg width="56" height="56" viewBox="0 0 56 56" fill="none" xmlns="http://www.w3.org/2000/svg">
<path d="M50.0656 18.6067C49.6769 18.4537 49.2627 18.3758 48.845 18.377H48.8012C46.5952 18.4097 44.1211 20.4758 42.8229 23.6007C41.2664 27.3392 41.9829 31.164 44.435 32.1473C44.8233 32.3002 45.2372 32.3781 45.6545 32.377C47.8716 32.377 50.3796 30.2988 51.6887 27.1532C53.2342 23.4147 52.5069 19.5899 50.0656 18.6067Z" stroke="#F7562C" stroke-width="3" stroke-miterlimit="10"/>
<path d="M35.8314 33.195C32.7908 28.1495 31.4783 26.252 28.0002 26.252C24.522 26.252 23.1985 28.1616 20.158 33.195C17.5548 37.5 12.2939 37.8588 10.9814 41.5152C10.7151 42.1849 10.5814 42.9001 10.5876 43.6207C10.5876 46.5945 12.8627 49.002 15.6627 49.002C19.1408 49.002 23.8767 46.2249 28.0112 46.2249C32.1455 46.2249 36.8595 49.002 40.3377 49.002C43.1377 49.002 45.4017 46.5957 45.4017 43.6207C45.4043 42.8992 45.2667 42.1843 44.997 41.5152C43.6845 37.8457 38.4345 37.5 35.8314 33.195Z" stroke="white" stroke-width="3" stroke-miterlimit="10"/>
<path d="M21.0557 21.4395C21.2021 21.4396 21.3484 21.4286 21.4932 21.4067C24.0318 21.038 25.6167 17.5205 25.0413 13.548C24.5 9.80305 22.2271 7.00195 19.8504 7.00195C19.7039 7.00183 19.5577 7.0128 19.4129 7.03476C16.8743 7.40336 15.2895 10.9209 15.8648 14.8933C16.4062 18.6275 18.679 21.4395 21.0557 21.4395Z" stroke="#544CF5" stroke-width="3" stroke-miterlimit="10"/>
<path d="M40.1325 14.8933C40.7078 10.9209 39.123 7.40336 36.5844 7.03476C36.4395 7.0128 36.2934 7.00183 36.1469 7.00195C33.7702 7.00195 31.5017 9.80305 30.9592 13.548C30.384 17.5205 31.9688 21.038 34.5073 21.4067C34.6522 21.4286 34.7984 21.4396 34.9448 21.4395C37.3215 21.4395 39.5944 18.6275 40.1325 14.8933Z" stroke="#FFAB24" stroke-width="3" stroke-miterlimit="10"/>
<path d="M11.5684 32.1472C14.0173 31.1629 14.7327 27.3347 13.1784 23.6007C11.8703 20.455 9.3645 18.377 7.15075 18.377C6.73338 18.3758 6.31957 18.4537 5.93121 18.6067C3.4823 19.591 2.76699 23.4192 4.32121 27.1532C5.62933 30.2988 8.13512 32.377 10.3489 32.377C10.7662 32.3781 11.18 32.3002 11.5684 32.1472Z" stroke="#037A54" stroke-width="3" stroke-miterlimit="10"/>
</svg>
