<svg width="115" height="116" viewBox="0 0 115 116" fill="none" xmlns="http://www.w3.org/2000/svg">
<g clip-path="url(#clip0_233_19)">
<path d="M80.1151 46.6757L80.1151 23.7757L68.6951 12.3257L68.6951 58.1357L114.395 58.1357L102.965 46.6757L80.1151 46.6757Z" fill="white"/>
<path d="M45.8349 35.2258L22.9849 35.2258L11.5649 46.6758L57.2649 46.6758L57.2649 0.865782L45.8349 12.3258L45.8349 35.2258Z" fill="white"/>
<path d="M34.415 69.5853L34.415 92.4853L45.835 103.945L45.835 58.1353L0.135008 58.1353L11.565 69.5853L34.415 69.5853Z" fill="white"/>
<path d="M68.6949 81.0355L91.5449 81.0355L102.965 69.5855L57.2649 69.5855L57.2649 115.396L68.6949 103.946L68.6949 81.0355Z" fill="white"/>
</g>
<defs>
<clipPath id="clip0_233_19">
<rect width="114.53" height="114.26" fill="white" transform="translate(0.13501 115.396) rotate(-90)"/>
</clipPath>
</defs>
</svg>
