<svg width="129" height="128" viewBox="0 0 129 128" fill="none" xmlns="http://www.w3.org/2000/svg">
<path fill-rule="evenodd" clip-rule="evenodd" d="M67.3332 16C57.0239 16 48.6666 24.3573 48.6666 34.6667V64.1637C47.4473 63.1861 46.6666 61.6843 46.6666 60C46.6666 51.8998 40.1001 45.3333 31.9999 45.3333C23.8998 45.3333 17.3333 51.8998 17.3333 60C17.3333 78.0213 31.0846 92.8309 48.6666 94.5083V101.333H21.9999V112H107.333V101.333H85.9999V81.1136C104 79.1237 118 63.8635 118 45.3333C118 37.2332 111.434 30.6667 103.333 30.6667C95.233 30.6667 88.6666 37.2332 88.6666 45.3333C88.6666 47.5144 87.6191 49.4509 85.9999 50.6671V34.6667C85.9999 24.3573 77.6426 16 67.3332 16ZM75.3332 101.333V70.6667H81.9999C95.9914 70.6667 107.333 59.3248 107.333 45.3333C107.333 43.1242 105.542 41.3333 103.333 41.3333C101.124 41.3333 99.3332 43.1242 99.3332 45.3333C99.3332 54.9061 91.5727 62.6667 81.9999 62.6667H75.3332V34.6667C75.3332 30.2484 71.7514 26.6667 67.3332 26.6667C62.9151 26.6667 59.3332 30.2484 59.3332 34.6667V76H51.9999C43.1634 76 35.9999 68.8368 35.9999 60C35.9999 57.7909 34.209 56 31.9999 56C29.7908 56 27.9999 57.7909 27.9999 60C27.9999 73.2549 38.7451 84 51.9999 84H59.3332V101.333H75.3332Z" fill="#FFAB24"/>
</svg>
